<?xml version="1.0" encoding="UTF-8"?>
<svg width="877px" height="538px" viewBox="0 0 877 538" version="1.1" xmlns="http://www.w3.org/2000/svg" xmlns:xlink="http://www.w3.org/1999/xlink">
    <title>Benchmark-Logo</title>
    <g id="Page-1" stroke="none" stroke-width="1" fill="none" fill-rule="evenodd">
        <g id="Benchmark-Logo" transform="translate(0.000000, 0.343210)" fill="#0F224B" fill-rule="nonzero">
            <path d="M409,0.256790123 C382.8,2.15679012 357.1,6.65679012 339.6,12.4567901 C330.2,15.5567901 328.5,16.4567901 328.7,18.1567901 C328.8,19.2567901 341.1,63.6567901 356.1,116.95679 C381.9,208.55679 383.5,213.75679 385.5,213.15679 C398.3,208.95679 428.5,207.05679 456.2,208.65679 C476.9,209.75679 485.1,210.75679 494.3,213.35679 C497.5,214.25679 500.2,214.75679 500.4,214.55679 C500.9,214.05679 557,20.2567901 557,19.2567901 C557,17.8567901 546,13.5567901 534.9,10.6567901 C521.8,7.25679012 504.3,4.25679012 484.3,2.05679012 C471.1,0.656790123 421,-0.543209877 409,0.256790123 Z" id="Path"></path>
            <path d="M282.5,29.1567901 C269.7,32.9567901 263.4,35.4567901 247.5,43.1567901 C206.8,62.9567901 159.7,96.1567901 128.8,127.05679 C119,136.75679 105,153.15679 105,154.75679 C105,155.25679 258.7,282.15679 261.5,283.85679 C262.2,284.25679 264.4,282.25679 266.9,279.05679 C278.8,263.85679 322.4,234.75679 348.6,224.55679 C353.2,222.75679 357,221.05679 357,220.75679 C357,218.75679 292.1,27.1567901 291.4,26.9567901 C290.9,26.8567901 286.9,27.8567901 282.5,29.1567901 Z" id="Path"></path>
            <path d="M586.6,33.4567901 C585.8,36.0567901 571.6,79.9567901 555,131.05679 C538.5,182.15679 525.1,223.95679 525.199444,224.05679 C525.4,224.25679 527.8,225.15679 530.5,226.05679 C554.1,234.55679 597,264.25679 609.4,280.75679 L613.8,286.55679 L691.6,220.55679 C734.5,184.25679 769.7,154.05679 769.9,153.45679 C770.5,151.75679 743.2,125.45679 726.5,111.55679 C680.9,73.6567901 634.1,44.3567901 600.5,32.4567901 C588,27.9567901 588.4,27.9567901 586.6,33.4567901 Z" id="Path"></path>
            <path d="M81.6,183.35679 C55.5,216.25679 33,258.55679 19,300.65679 C8.2,333.25679 0,376.95679 0,401.85679 L0,410.65679 L101.5,410.65679 L202.9,410.65679 L203.4,407.35679 C206.9,382.45679 212.3,364.85679 222.9,343.15679 C226.7,335.45679 232.7,324.75679 236.3,319.45679 L242.8,309.75679 L166.7,245.55679 C124.8,210.25679 89.5,180.45679 88.3,179.45679 L86.2,177.45679 L81.6,183.35679 Z" id="Path"></path>
            <path d="M709.3,242.25679 L629,303.85679 L633.1,309.45679 C646.9,328.45679 657.6,348.25679 663.4,365.95679 C666.8,376.05679 673,403.45679 673,408.35679 C673,410.35679 673.6,410.55679 682.3,411.15679 C687.3,411.45679 733.1,411.65679 784,411.45679 L876.5,411.15679 L876.4,397.65679 C875.9,360.85679 860.4,304.75679 837.1,256.15679 C827.1,235.25679 819.4,221.95679 805.4,201.15679 C792.4,181.65679 791.6,180.65679 790.4,180.65679 C789.9,180.65679 753.4,208.45679 709.3,242.25679 Z" id="Path"></path>
            <path d="M414.6,234.65679 C405.3,235.75679 391,238.35679 390.2,239.15679 C389.6,239.65679 436.7,384.65679 437.9,385.85679 C438.5,386.45679 489.5,243.75679 489.5,241.35679 C489.5,236.95679 436.3,232.15679 414.6,234.65679 Z" id="Path"></path>
            <path d="M358.5,249.55679 C345.2,254.35679 324.6,266.65679 308.5,279.45679 C297.6,288.15679 285.9,298.85679 286.2,299.85679 C286.6,301.05679 408.4,394.55679 408.9,394.05679 C409.4,393.55679 364.7,247.65679 364,247.756739 C363.7,247.756739 361.3,248.55679 358.5,249.55679 Z" id="Path"></path>
            <path d="M498.5,307.35679 C488.3,338.55679 477.6,371.05679 474.8,379.45679 C472.1,387.85679 470,394.95679 470.2,395.15679 C470.4,395.45679 498.5,375.25679 532.7,350.35679 C580.9,315.25679 594.6,304.85679 594,303.65679 C592.7,301.15679 570.6,281.65679 560.7,274.35679 C545.8,263.25679 530.2,254.55679 519.3,251.25679 C517.2,250.55679 516.3,252.95679 498.5,307.35679 Z" id="Path"></path>
            <path d="M265.7,322.55679 C264.9,323.45679 260.7,329.75679 256.4,336.65679 C247.5,350.85679 242,362.95679 239.1,374.35679 C236.2,385.85679 231.6,409.65679 232.2,410.15679 C232.5,410.45679 268.6,410.55679 312.5,410.45679 L392.4,410.15679 L329.8,365.55679 C272.9,324.95679 267,321.05679 265.7,322.55679 Z" id="Path"></path>
            <path d="M547.1,365.45679 L484.9,410.15679 L564.6,410.45679 C608.4,410.55679 644.4,410.55679 644.6,410.45679 C645,410.05679 639.5,383.35679 637,373.65679 C634.3,362.65679 626.2,346.15679 616.8,331.95679 L609.4,320.65679 L547.1,365.45679 Z" id="Path"></path>
            <path d="M28,447.55679 C28,448.05679 28.8,448.95679 29.8,449.55679 C31.4,450.45679 31.5,453.45679 31.5,489.65679 C31.5,525.85679 31.4,528.85679 29.8,529.75679 C28.8,530.35679 28,531.15679 28,531.65679 C28,532.25679 40.7,532.65679 60.8,532.65679 C96.3,532.65679 101.8,532.05679 109.2,527.15679 C111.2,525.75679 114.1,522.55679 115.7,519.95679 C118,516.05679 118.4,514.05679 118.5,508.25679 C118.5,499.65679 116.6,495.75679 109.8,490.65679 L105.1,487.25679 L107.9,485.25679 C113.5,481.25679 115.5,477.05679 115.5,469.25679 C115.5,459.75679 112.4,454.35679 104.8,450.05679 L99.5,447.15679 L63.8,446.85679 C40.2,446.65679 28,446.85679 28,447.55679 Z M94.6,463.95679 C96.2,465.85679 97,467.95679 97,470.65679 C97,473.35679 96.2,475.45679 94.6,477.35679 L92.2,480.15679 L71.1,480.45679 L50,480.75679 L50,470.65679 L50,460.55679 L71.1,460.85679 L92.2,461.15679 L94.6,463.95679 Z M89.8,495.75679 C96.7,497.15679 99.4,500.25679 99.4,506.75679 C99.4,510.75679 98.9,512.25679 96.8,514.25679 C93.2,517.95679 88.7,518.55679 68.3,518.65679 L50,518.65679 L50,507.35679 C50,501.05679 50.3,495.65679 50.7,495.35679 C51.8,494.25679 84.5,494.55679 89.8,495.75679 Z" id="Shape"></path>
            <path d="M198,459.65679 C197,461.55679 195.9,461.65679 163.5,461.65679 C145.1,461.65679 130,461.95679 130,462.45679 C130,462.85679 130.9,463.75679 132,464.45679 C133.9,465.65679 134,466.75679 134,497.15679 C134,527.55679 133.9,528.65679 132,529.85679 C130.9,530.55679 130,531.45679 130,531.85679 C130,532.35679 145.3,532.65679 164,532.65679 C197.6,532.65679 197.9,532.65679 200,534.85679 L202,537.05679 L201.9,526.05679 C201.9,515.85679 201.8,515.25679 200.3,517.35679 C198.8,519.65679 198.5,519.65679 174.9,519.65679 L151,519.65679 L151,511.15679 L151,502.65679 L165.5,502.65679 C178.9,502.65679 180.1,502.75679 181.2,504.65679 C181.9,505.75679 182.8,506.65679 183.2,506.65679 C183.7,506.65679 184,502.15679 184,496.65679 C184,491.15679 183.8,486.65679 183.5,486.65679 C183.2,486.65679 182.1,487.55679 181,488.65679 C179.2,490.45679 177.7,490.65679 165,490.65679 L151,490.65679 L151,482.65679 L151,474.65679 L173.5,474.65679 C195.3,474.65679 196,474.75679 198,476.85679 L200,479.05679 L200,468.35679 C200,462.45679 199.8,457.65679 199.5,457.65679 C199.3,457.65679 198.6,458.55679 198,459.65679 Z" id="Path"></path>
            <path d="M336.5,462.05679 C324.7,464.95679 316.1,471.85679 311.3,482.35679 C305.5,494.85679 307.8,510.75679 316.6,520.55679 C325.2,530.15679 334.2,533.65679 350.1,533.65679 C361.4,533.65679 367.6,532.05679 377.8,526.55679 C382.5,523.95679 385.8,522.75679 387,523.15679 C388.1,523.55679 389,523.45679 389,523.15679 C389,522.75679 386.7,519.15679 383.8,515.05679 C378.8,507.75679 377.6,507.05679 376.8,511.15679 C376.6,512.45679 374.1,514.35679 369.6,516.65679 C363.1,519.95679 362.2,520.15679 352.6,520.15679 C340.9,520.15679 336.9,518.65679 330.7,511.75679 C320.7,500.65679 324.3,484.25679 338.4,476.95679 C342.8,474.55679 344.7,474.25679 352.5,474.25679 C360.3,474.15679 362.3,474.55679 367.5,476.95679 C374.5,480.25679 377,482.25679 377,484.85679 C377,488.15679 378.8,486.75679 383.9,479.55679 C388.7,472.65679 389.5,470.15679 386.6,471.25679 C385.8,471.55679 381.6,469.95679 377.1,467.75679 C372.6,465.45679 366.4,462.95679 363.3,462.15679 C356.5,460.35679 343.5,460.35679 336.5,462.05679 Z" id="Path"></path>
            <path d="M213,462.45679 C213,462.85679 213.9,463.75679 215,464.45679 C216.9,465.65679 217,466.75679 217,497.15679 C217,527.55679 216.9,528.65679 215,529.85679 C213.9,530.55679 213,531.45679 213,531.85679 C213,532.35679 218.4,532.65679 225,532.65679 C236.1,532.65679 239.9,531.75679 235,530.15679 C233.1,529.55679 233,528.65679 233,507.85679 L233,486.15679 L253.5,506.65679 C271.7,524.75679 276.4,530.65679 273,530.65679 C272.5,530.65679 272,531.05679 272,531.65679 C272,532.25679 276.8,532.65679 284.5,532.65679 C291.4,532.65679 297,532.35679 297,531.85679 C297,531.45679 296.1,530.55679 295,529.85679 C293.1,528.65679 293,527.55679 293,497.15679 C293,466.75679 293.1,465.65679 295,464.65679 C299.2,462.45679 296.8,461.65679 285.7,461.65679 C279.4,461.65679 274.1,461.95679 273.7,462.25679 C273.4,462.65679 274.1,463.75679 275.3,464.65679 C277.4,466.45679 277.5,467.25679 277.8,486.55679 C278,497.65679 277.8,506.65679 277.3,506.65679 C275.7,506.65679 238,468.15679 238,466.45679 C238,465.55679 238.5,464.45679 239,464.15679 C242,462.25679 238.8,461.65679 226.5,461.65679 C219.1,461.65679 213,461.95679 213,462.45679 Z" id="Path"></path>
            <path d="M399.8,462.25679 C399.5,462.55679 400.3,463.85679 401.6,465.25679 L404.1,467.65679 L403.8,498.05679 L403.5,528.45679 L401,530.55679 L398.5,532.55679 L411.3,532.65679 C418.3,532.65679 424,532.45679 424,532.15679 C424,531.85679 423.1,530.75679 422,529.65679 C420.1,527.75679 420,526.55679 420.2,514.85679 L420.5,502.15679 L440.3,501.85679 L460,501.65679 L460,515.15679 C460,527.55679 459.8,528.75679 458,529.85679 C456.9,530.55679 456,531.45679 456,531.85679 C456,532.35679 461.6,532.65679 468.5,532.65679 C475.4,532.65679 481,532.35679 481,531.85679 C481,531.45679 480.1,530.55679 479,529.85679 C477.1,528.65679 477,527.55679 477,497.15679 C477,466.75679 477.1,465.65679 479,464.45679 C480.1,463.75679 481,462.85679 481,462.45679 C481,461.95679 475.4,461.65679 468.5,461.65679 C461.6,461.65679 456,461.95679 456,462.45679 C456,462.85679 456.9,463.95679 458,464.95679 C459.8,466.45679 460,467.85679 460,477.65679 L460,488.65679 L439.9,488.65679 L419.8,488.65679 L420.2,477.05679 C420.4,467.35679 420.8,465.35679 422.3,464.55679 C426.1,462.35679 423.6,461.65679 412.2,461.65679 C405.7,461.65679 400.1,461.95679 399.8,462.25679 Z" id="Path"></path>
            <path d="M493.8,462.25679 C493.5,462.55679 494.3,463.85679 495.6,465.25679 L498.1,467.65679 L497.8,498.05679 L497.5,528.45679 L495,530.55679 L492.5,532.55679 L504.8,532.65679 C511.5,532.65679 517,532.35679 517,531.85679 C517,531.45679 516.1,530.55679 515,529.85679 C513.1,528.65679 513,527.55679 513,507.45679 L513,486.25679 L525.6,507.95679 C532.5,519.85679 538.5,529.45679 538.9,529.25679 C539.3,528.95679 545.5,519.35679 552.6,507.75679 L565.5,486.75679 L565.8,507.45679 C566,527.25679 566,528.25679 564,529.85679 C562.9,530.75679 562,531.75679 562,532.05679 C562,532.35679 567.6,532.65679 574.5,532.65679 C581.4,532.65679 587,532.35679 587,531.85679 C587,531.45679 586.1,530.55679 585,529.85679 C583.1,528.65679 583,527.55679 583,497.15679 C583,466.75679 583.1,465.65679 585,464.45679 C586.1,463.75679 587,462.85679 587,462.45679 C587,461.95679 580.5,461.65679 572.5,461.65679 C564.5,461.65679 558,461.95679 558,462.35679 C558,462.65679 558.7,463.85679 559.7,464.85679 C561,466.35679 561.1,467.15679 560.1,469.45679 C558.3,473.55679 540.7,502.65679 540.1,502.65679 C539.2,502.65679 522.1,473.25679 520.9,469.65679 C520,467.15679 520.1,466.25679 521.4,464.75679 C522.3,463.75679 523,462.65679 523,462.35679 C523,461.55679 494.6,461.45679 493.8,462.25679 Z" id="Path"></path>
            <path d="M623.5,462.55679 C623.2,463.15679 623.9,464.05679 625,464.65679 C626.1,465.25679 627,466.65679 626.9,467.95679 C626.9,469.15679 620.3,483.45679 612.2,499.65679 C601.6,521.05679 596.9,529.45679 595.3,530.15679 C590.8,532.05679 593.2,532.65679 606,532.65679 C613.2,532.65679 619,532.35679 619,531.85679 C619,531.45679 618.1,530.55679 617,529.85679 C614.4,528.25679 614.5,527.55679 617.6,520.55679 L620.3,514.65679 L636.5,514.65679 L652.7,514.65679 L655.3,519.55679 C658.6,525.45679 658.8,529.65679 656,530.35679 C650.6,531.75679 655.4,532.65679 668.5,532.65679 C676.5,532.65679 683,532.35679 683,531.85679 C683,531.45679 682,530.65679 680.8,530.15679 C679.2,529.45679 674,520.55679 663.7,501.15679 C655.5,485.75679 648.4,471.85679 647.8,470.35679 C646.9,467.95679 647.1,467.15679 648.9,465.25679 C650,464.05679 651,462.75679 651,462.35679 C651,461.25679 624.2,461.55679 623.5,462.55679 Z M646.9,503.85679 C647,504.35679 642.3,504.65679 636.5,504.65679 C630,504.65679 626,504.25679 626,503.65679 C626,503.05679 628.3,498.05679 631.1,492.45679 L636.3,482.15679 L641.6,492.65679 C644.5,498.45679 646.9,503.45679 646.9,503.85679 Z" id="Shape"></path>
            <path d="M689,462.55679 C689,463.15679 689.9,464.05679 691,464.65679 C692.9,465.65679 693,466.75679 693,497.15679 C693,527.55679 692.9,528.65679 691,529.85679 C689.9,530.55679 689,531.45679 689,531.85679 C689,532.35679 694.6,532.65679 701.5,532.65679 C708.4,532.65679 714,532.35679 714,531.85679 C714,531.45679 713.1,530.55679 712,529.85679 C710.2,528.75679 710,527.55679 710,516.15679 L710,503.55679 L718.7,503.85679 L727.3,504.15679 L734.7,514.65679 C743.1,526.75679 743.9,528.55679 741.6,530.15679 C740.7,530.85679 740,531.65679 740,532.05679 C740,532.35679 746.5,532.65679 754.5,532.65679 C762.5,532.65679 769,532.35679 769,531.85679 C769,531.45679 767.7,530.45679 766.1,529.55679 C763.7,528.15679 746.1,505.35679 746,503.45679 C746,503.15679 748.2,502.05679 750.9,501.15679 C753.7,500.25679 757.1,498.55679 758.6,497.45679 C767,490.75679 766.9,472.85679 758.4,466.95679 C752.2,462.65679 749.6,462.35679 718.8,461.85679 C698.1,461.55679 689,461.75679 689,462.55679 Z M746.1,477.55679 C748.5,480.55679 748.5,484.75679 746.1,487.75679 C744.2,490.05679 743.7,490.15679 727.1,490.45679 L710,490.75679 L710,482.65679 L710,474.45679 L727.1,474.85679 C743.7,475.15679 744.2,475.25679 746.1,477.55679 Z" id="Shape"></path>
            <path d="M778,462.45679 C778,462.85679 778.9,463.95679 780,464.95679 C781.9,466.55679 782,467.85679 782,497.15679 C782,526.35679 781.9,527.75679 780,529.65679 C778.9,530.75679 778,531.85679 778,532.15679 C778,532.45679 783.6,532.65679 790.5,532.65679 C802.1,532.65679 806,531.75679 801,530.15679 C799.2,529.55679 799,528.65679 799,518.85679 L799,508.15679 L802.8,505.05679 C804.8,503.45679 807,501.75679 807.7,501.35679 C808.4,500.85679 813.2,505.75679 820.5,514.35679 C831.9,527.85679 832,528.15679 830,529.85679 C828.9,530.75679 828,531.75679 828,532.05679 C828,532.35679 835,532.65679 843.5,532.65679 C852,532.65679 859,532.25679 859,531.85679 C859,531.35679 857.6,530.35679 856,529.55679 C853,528.15679 820.7,491.95679 821.2,490.55679 C821.6,489.55679 845.7,470.15679 851.5,466.15679 C853.9,464.45679 855.9,462.85679 855.9,462.35679 C856,461.95679 849,461.65679 840.5,461.65679 C825.7,461.65679 822.7,462.25679 826.6,464.45679 C829.6,466.15679 827.1,469.05679 813.2,479.95679 L799.5,490.85679 L799.2,478.45679 C798.9,467.15679 799.1,466.05679 800.9,464.55679 C802,463.65679 802.6,462.65679 802.3,462.25679 C801.4,461.35679 778,461.55679 778,462.45679 Z" id="Path"></path>
        </g>
    </g>
</svg>