<svg version="1.1" aria-hidden="true" role="img" xmlns="http://www.w3.org/2000/svg" x="0" y="0" viewBox="0 0 120 40" style="enable-background:new 0 0 120 40" xml:space="preserve"><style>.st0{fill:#00205b}</style><g id="DR_Horton_LOGO_1_"><path class="st0" d="M.1 0h116.5v1.2H.1zM8.2 5.9c.5.1.4.5.4.5V20c-.2 1.6-2.8 1.5-2.8 1.5V5.9h2.4zm-2-.8H.7s-.5.1-.5.4c.1.3.3.4.8.4v15.3l-.2.2s-.6 0-.7.3c-.1.3.3.4.6.4h7.9s4.8-.2 4.8-3.3V8.1s-.6-3-3.8-3.1c-3.2.1-3.4.1-3.4.1zM16.4 14.5c.7 0 1.3-.5 1.3-1.2s-.6-1.2-1.3-1.2c-.7 0-1.3.5-1.3 1.2.1.7.6 1.2 1.3 1.2zM34.5 14.5c.7 0 1.3-.5 1.3-1.2s-.6-1.2-1.3-1.2c-.7 0-1.3.5-1.3 1.2s.6 1.2 1.3 1.2zM28.6 5.2c.9 0 2.5 1.5 2.6 2.7.1.8.1 1.7.1 2.4 0 2.6-2.4 3.2-2.4 3.2.4.1 1.3.2 2.1.7.8.5 1 1.6 1 1.6v5.5l.2.2h.8c.1 0 .2 0 .2.3 0 .5-.4.4-.4.4h-5c-.5 0-.9-1-.9-1v-6.5c0-.5-1-.6-1-.6h-1.6v7l.1.2h.6c.1 0 .3-.1.3.3 0 .5-.2.4-.2.4h-6.4c-.2 0-.3 0-.3-.3 0-.2.3-.4.3-.4h.4l.3-.3V6l-.2-.2h-.5c-.4 0-.2-.1-.2-.5 0-.3.3-.2.3-.2h5.3c.2.1 3.6.1 4.5.1zm-3 .7h-1.1v7.4h2.1s.5 0 .5-.7V6.4s-.1-.5-.7-.5h-.8zM76.1 5.2c.9 0 2.5 1.5 2.6 2.7.1.8.1 1.7.1 2.4 0 2.6-2.4 3.2-2.4 3.2.4.1 1.3.2 2.1.7.8.5 1 1.6 1 1.6v5.5l.2.2h.8c.1 0 .2 0 .2.3 0 .5-.4.4-.4.4h-5c-.5 0-.9-1-.9-1v-6.5c0-.5-1-.6-1-.6h-1.6v7l.1.2h.6c.1 0 .3-.1.3.3 0 .5-.2.4-.2.4h-6.4c-.2 0-.3 0-.3-.3 0-.2.3-.4.3-.4h.4l.3-.3V6l-.2-.2h-.5c-.4 0-.2-.1-.2-.5 0-.3.3-.2.3-.2h5.3c.2.1 3.6.1 4.5.1zm-3 .7H72v7.4h2s.5 0 .5-.7V6.4s-.1-.5-.7-.5h-.7zM44.2 14.3h1.1l.2.2V22c0 .3.2.3.2.3H51c.3 0 .4-.2.4-.3 0-.1 0-.5-.6-.5-.5 0-.5-.4-.5-.4V6.2c0-.2 0-.3.4-.3s.5-.1.5-.3c0-.2-.3-.4-.3-.4h-5.3c-.2 0-.2.3-.2.3v7.2l-.2.2h-2.5l-.2-.2V5.4s0-.3-.2-.3H37s-.3.2-.3.4.1.3.5.3.4 0 .4.3V21s0 .4-.5.4-.6.4-.6.5c0 .1.1.3.4.3h5.3s.2 0 .2-.3v-7.5l.2-.2h1.6M58.8 22.3c-3 0-3.9-.4-4.9-1.4-1-1-1.2-2.9-1.2-3.7-.1-.8-.1-1.3-.1-4.1 0-2.2.2-3.3.5-4.8.5-2 1.3-2.4 2.4-2.9 1-.5 3.4-.5 3.4-.5h.3s2.2.1 3.2.5c1 .5 1.9.9 2.4 2.9.4 1.5.5 2.6.5 4.8 0 2.8 0 3.3-.1 4.1-.1.8-.2 2.7-1.2 3.7s-1.8 1.4-4.8 1.4h-.4zm.2-.5c1.8 0 1.5-1 1.5-1V6.7c0-1.3-1.1-1.4-1.5-1.4h-.2c-.4 0-1.6.1-1.6 1.4v14.1s-.3 1 1.5 1h.3zM96.6 22.3c-3 0-3.9-.4-4.9-1.4-1-1-1.2-2.9-1.2-3.7-.1-.8-.1-1.3-.1-4.1 0-2.2.2-3.3.5-4.8.5-2 1.3-2.4 2.4-2.9 1-.5 3.4-.5 3.4-.5h.3s2.2.1 3.2.5c1 .5 1.9.9 2.4 2.9.4 1.5.5 2.6.5 4.8 0 2.8 0 3.3-.1 4.1-.1.8-.2 2.7-1.2 3.7s-1.8 1.4-4.8 1.4h-.4zm.2-.5c1.8 0 1.5-1 1.5-1V6.7c0-1.3-1.1-1.4-1.5-1.4h-.2c-.4 0-1.6.1-1.6 1.4v14.1s-.3 1 1.5 1h.3z"/><path class="st0" d="M85.2 5.2H91s.2.2.2.4v1.8s0 .4-.4.4c-.3 0-.4-.1-.4-.5v-.6h-2.8s-.3 0-.3.3v14.1s0 .4.6.4c.3 0 .3.1.3.4 0 .2-.1.4-.4.4h-6.1c-.3 0-.4-.1-.4-.4 0-.2 0-.4.3-.4.6 0 .6-.4.6-.4V7c0-.3-.3-.3-.3-.3h-2.8v.6c0 .4-.1.5-.4.5-.3 0-.4-.4-.4-.4V5.6c0-.2.2-.4.2-.4h6.7M111.4 22.3h3.8V6.2s-.1-.2.4-.2.5-.3.5-.4c0-.1-.2-.3-.5-.3h-2.2s-.3 0-.3.4c0 .3.1.4.3.4.2 0 .5 0 .5.2v9.8l-4.1-9.9s.1-.2.4-.2c.3 0 .5-.2.5-.4 0-.3-.2-.3-.3-.3h-6.2s-.2 0-.2.2 0 .4.3.4.6.1.6.2v15.2s.1.2-.4.2-.5.3-.5.4c0 .1.2.3.5.3h2.2s.3 0 .3-.4c0-.3-.1-.4-.3-.4-.2 0-.5 0-.5-.2V8.8l5.2 13.5zM118.6 7.9c-.7 0-1.3-.5-1.3-1.3s.6-1.3 1.3-1.3c.7 0 1.3.5 1.3 1.3 0 .9-.6 1.3-1.3 1.3zm0-2.2c-.5 0-.9.4-.9 1s.4 1 .9 1 .9-.4.9-1c.1-.6-.4-1-.9-1zm-.2 1.6h-.3V5.9h.5c.4 0 .6.1.6.4 0 .3-.2.3-.3.4l.4.6h-.4l-.3-.6h-.1v.6zm.3-.8c.1 0 .2 0 .2-.2 0-.1-.2-.2-.3-.2h-.2v.3h.3z"/><g><path class="st0" d="M16 35.7c-.1 0-.1.1-.2.2-.1.3-.3.5-.5.8-.2.3-.5.5-.7.8-.3.2-.5.4-.8.5-.1-.4-.1-.8-.1-1.3 0-1 .1-2.2.3-3.5v-.5l1-.1 1-.1h.2c.3 0 .3-.1.3-.2s-.2-.2-.3-.2H14.3V32l.2-1.2c.1-.6.3-1.4.5-2.3.1-.3.1-.5 0-.7-.1-.2-.3-.4-.5-.6-.3-.2-.5-.3-.7-.3-.1 0-.2.1-.4.2l-.2.1c-.2.2-.5.4-.9.7-.4.3-.8.6-1.2 1l-1.8 1.6-2 1.8s-.1 0-.1.1h-.1c-.5 0-1 .1-1.5.1H4.5c-.2 0-.4 0-.6-.1.1.4.2.6.3.8.1.2.2.2.3.3.1.1.2.2.4.2.1.1.3.1.4.1H6.1c-.2.3-.5.5-.8.8l-.4.4-.7.7-.6.6-.4.4C1.4 38.4.8 38 .3 38.7c-.1.2.1.7.5 1 .4.2.9.3 1.2.3.2 0 .4-.1.6-.2.2-.1.4-.4.8-.7.4-.4 2.6-3.1 1.8-2.1-.2.3.3-.2 1.4-1.7l.7-.9.7-.9 1.3-.1 1.3-.1.9-.1.9-.1-.2 1.1-.2 1.1c-.2 1.1-.2 1.9-.1 2.4 0 .2.1.4.1.5.1.2.3.5.5.7.2.3.5.5.7.6.3.2.5.2.6.2.2 0 .3-.1.5-.3.8-.9 1.4-2 1.8-3.3 0-.2.1-.3 0-.3.1 0 0-.1-.1-.1zm-2.7-6.5c-.1.4-.2.9-.3 1.4l-.2.9-.2.9H8.8v-.1c.7-.9 1.7-1.9 3-3 .3-.3.6-.6.9-.8.3-.2.6-.4 1-.6-.2.5-.3.9-.4 1.3zM39 34.1c.1-.2.2-.5.5-.8l.4-.5c.1-.2.2-.3.1-.4-.1-.2-.2-.3-.3-.4-.2-.1-.3-.2-.5-.2s-.4.1-.6.2c-.2.1-.6.4-1.1.9l-1.1.9c-.2.1-.3.3-.5.5l-.8.8c.2-.5.4-.9.7-1.2l.7-.9c.1-.2.1-.3.1-.5-.1-.2-.2-.3-.3-.4-.2-.1-.3-.2-.5-.2h-.2s-.1.1-.2.3l-.1.3c-.3.4-.8 1.1-1.9 1.9-.3.2-1.7 1.3-2.4 1.6-.9.4-1.4.4-1.9.3-.2 0-.5-.2-.6-.3-.1-.2-.2-.3-.1-.6s.3-.6.4-.6c.4.1.8.4 1.5.4s.9-.1 1.3-.3c.4-.2.7-.5 1-.9.3-.4.5-.8.4-1.2 0-.2-.1-.3-.2-.5-.2-.1-.3-.3-.5-.4-.2-.1-.5-.1-.6-.1-.3 0-.6 0-1.1.3-.5.2-1 .5-1.5.9s-.9.8-1.2 1.3c-.1 0-.2 0-.4.1-.8.1-1.5.4-2.1.8.3-.8.7-1.6 1.3-2.4.1-.1.1-.3.1-.4-.1-.2-.2-.3-.3-.4-.2-.1-.3-.2-.5-.2-.1 0-.2.1-.4.2-.6.1-1 .5-1.6 1l-1.1 1c-.4.4-.8.7-1.1 1.1l.3-.6c.1-.2.1-.3.2-.4.1-.1.1-.2.2-.4.1-.1.3-.4.5-.9.1-.2.2-.4.1-.5-.1-.1-.2-.3-.3-.4-.2-.1-.3-.2-.5-.2-.1 0-.3.1-.5.2-.4.3-1 .8-1.8 1.5-.6.5-1.2 1.1-1.8 1.7.3-.6.5-1 .8-1.4l.2-.3c.2-.4.1-.4.2-.8 0-.1.1-.4 0-.7 0-.1-.1-.3-.2-.4-.1-.1-.2-.1-.3-.1-.1 0-.3-.1-.4.1 0 .1.7.1.2.9l-.8 1c-.4.6-.8 1.2-1.1 2-.3.6-.3 1-.2 1.3.1.1.2.3.4.4.2.1.4.2.5.2h.2s.1-.1.2-.3c.4-.8.8-1.4 1.3-2 .5-.6 1-1 1.6-1.3.1-.1.2-.1.2-.1h.1v.1l-.1.1-.1.1c-.5 1-.8 1.7-.8 2.3v.3c.1.1.2.3.4.5.2.1.4.2.5.2.1 0 .2-.1.3-.2.2-.7.6-1.3 1.2-2s1.1-1.1 1.6-1.3c.2-.1.3-.1.3-.1.1 0 .1 0 .1.1v.1l-.1.1-.5 1c-.2.4-.3.8-.3 1-.1.3-.1.5 0 .7.1.1.2.3.4.4.2.1.4.2.6.2h.2s.1-.1.1-.2c0 0 0-.1.1-.1 0-.1.1-.1.1-.2.3-.6.6-1 .8-1.3.3-.2.6-.4 1-.6.2-.1.4-.1.6-.2-.2.5-.3 1-.1 1.4.1.3.3.7.9 1 .4.2 1.2.2 1.8 0 .9-.2 1.5-.7 1.9-1 .4-.3 1.3-1.1 1.6-1.4.3-.2.7-.6 1-.9-.5.8-.9 1.6-1.2 2.4-.1.2-.1.4 0 .5.1.1.2.3.4.4.2.2.4.2.5.2.1 0 .3-.1.4-.4.5-1 1-1.7 1.7-2.3.4-.4 1-.7 1.6-1-.2.3-.2.5-.2.6.1.2.2.3.5.4.3.1.5.2.9.3-.1-.1-.1-.2-.1-.2-.1-.1-.1-.3-.1-.5zm-8.4-.9c.5-.3.9-.4 1.2-.4.1 0 .2 0 .2.1s0 .3-.2.6-.4.8-1.1 1c-.6.2-1.4.1-1.7-.1.3-.3 1.1-1 1.6-1.2zM116.2 32.2c-.1-.2-.2-.3-.3-.4-.2-.1-.3-.2-.5-.2s-.4.1-.6.2c-.2.1-.6.4-1.1.9l-1.1.9c-.2.1-.3.3-.5.5l-.8.8c.2-.5.4-.9.7-1.2l.7-.9c.1-.2.1-.3.1-.5-.1-.2-.2-.3-.3-.4-.2-.1-.3-.2-.5-.2h-.2s-.1.1-.2.3l-.1.3c-.3.4-.8 1.1-1.9 1.9-.3.2-1.7 1.3-2.4 1.6-.9.4-1.4.4-1.9.3-.2 0-.5-.2-.6-.3-.1-.2-.2-.3-.1-.6s.3-.6.4-.6c.4.1.8.4 1.5.4s.9-.1 1.3-.3c.4-.2.7-.5 1-.9.3-.4.5-.8.4-1.2 0-.2-.1-.3-.2-.5-.2-.1-.3-.3-.5-.4-.2-.1-.5-.1-.6-.1-.3 0-.6.1-1.1.3-.5.2-1 .5-1.5.9s-.9.8-1.2 1.3c-.1 0-.2 0-.4.1-.3.1-.5.1-.7.1-.5.1-1.1.4-1.7.7.1-.3.2-.6.3-.8.1-.2.3-.5.5-.9.6-.9 2-2.1 2.6-2.7l1.3-1.5c.2-.2.4-.4.3-.6-.1-.2-.3-.3-.5-.3-.1 0-.4.2-.6.4-.6.5-1.4 1.3-1.4 1.3-.5.5-2.1 2-2.5 2.4-.1-.2-.3-.4-.5-.5-.2-.1-.4-.2-.7-.2-.2 0-.4 0-.6.1-.5.2-1 .4-1.6.8-.4.3-.8.5-1.2.8-.6.3-1.3.6-1.4.7-.5.2-1.3.7-1.9 1 .2-.5.5-1.1.9-1.7l.6-.9c.2-.3.4-.6.7-.8.2-.3.4-.5.6-.6l.9-.9c.2-.2.4-.4.3-.6 0-.1-.1-.1-.1-.2-.1-.1-.2-.1-.4-.1-.1 0-.3.1-.4.2-.2.2-1.1.8-3.1 3.1-.1.2-.3.3-.4.5-.4.3-1.1.8-1.7 1.3-.9.6-1.7 1.2-1.7 1.1.2-.5.6-1.5.9-1.9l.1-.1c.3-.4.4-.6.4-.6.1-.1.2-.2.2-.3v-.3c-.1-.2-.2-.3-.3-.4-.1-.1-.3-.2-.4-.2-.1 0-.2.1-.3.2l-.7 1.1c-.4.3-1.1.8-1.9 1.4-.9.7-1.2.8-1.7 1.1 0 0-.2.2 0-.3 0-.1.5-.9.8-1.4 0-.1.1-.1.1-.2s.1-.2.2-.2V33c.2-.3.3-.5.3-.5v-.3c0-.1-.2-.3-.4-.4-.2-.1-.4-.2-.5-.2-.1 0-.2.1-.3.2-.3.4-.5.8-.7 1-.2.2-.4.5-.6.8-.2.3-.4.5-.5.6-.1.1-.3.3-.7.6-.2.1-.4.3-.6.5-.3.2-.5.3-.6.4-.1 0-.1.1-.2.1s-.1 0-.2-.1c0-.1 0-.4.2-.8s.5-.8.8-1.3c.2-.2.3-.5.5-.7.1-.2.2-.3.2-.4v-.4c-.1-.2-.2-.3-.3-.4-.2-.1-.3-.2-.4-.2-.1 0-.3.1-.4.2l-.8 1.4c-.3.4-.5.7-.6 1.1-.3-.1-.6-.3-1.1-.4 0-.1.3-.8-.4-1.5-1.1-1.2-3.2-1-3.2-1 3.7-1.7 1.3-3.7-.9-3.8-4.2-.1-6.7 3.1-6.7 3.1 6.8-4.7 7.7-1.4 7.7-1.4.2.5-.3 1.4-1.4 1.9-.5.2-.7.2-1.2.4-.3.1-.9.2-1 .2-.6.1-1 .2-1.2.2h-.1c.1-.1.1-.2.2-.3.1-.1.2-.2.2-.3.4-.5.6-.8.7-.9.1-.2.2-.3.1-.4-.1-.1-.3-.3-.6-.5-.2-.1-.3-.1-.4-.1-.1 0-.3.1-.4.3-.5.6-.9 1.1-1.2 1.7-.3.5-.7 1.1-1 1.6-.3.5-.6 1-.8 1.5v.1c-.8.2-1.5.5-2 .8-.6.3-.7.7-.5 1.2.1.3.4.7.7 1.1.3.4.7.7 1.1.9.5.3 1 .4 1.5.4 1.4 0 3.1-.3 5.1-.9 1-.3 1.8-.6 2.5-.9.7-.3 1.2-.7 1.8-1.1.4-.3.7-.6 1-.9.3-.3.5-.6.5-.8h.1c.4.1.7.1.9.2-.1.1-.1.2-.2.4-.2.4-.3.7-.3.8v.4c.1.2.3.4.5.6.3.2.5.3.7.3.1 0 .3-.1.5-.2.5-.4 1-.9 1.6-1.6l.8-.8.2-.2c-.2.5-.4 1-.6 1.4-.1.4-.2.7-.1.8l.5.5c.2.2.4.2.5.2.1 0 .1 0 .2-.1 0 0 .2-.1.3-.3.3-.4.6-.8.7-.9.3-.3.4-.5.6-.7.7-.7 1.3-1.1 1.8-1.5-.3.5-.4.8-.6 1.1-.2.3-.3.7-.4 1.2v.5c.1.1.2.3.5.4.2.1.4.2.5.2.1 0 .1 0 .2-.1 0 0 .2-.1.3-.3.3-.4.6-.8.7-.9.3-.3.4-.5.6-.7.7-.7 1.2-1.1 1.7-1.4-.1.2-.2.3-.2.5-.3.6-.5 1.2-.6 1.7-.1.2 0 .4 0 .5.1.1.2.3.5.4.2.1.4.2.5.2.1 0 .1 0 .2-.1l.3-.3c.3-.4.6-.8.7-.9.3-.3.6-.7.9-.9.1-.1.5-.3.9-.6-.4.6-.6 1.1-.4 1.5.1.3.3.6.6.8.3.2.5.4.8.4.1 0 .2 0 .4-.1.1-.1.3-.2.6-.4.8-.6 1.7-1.5 2.6-2.5l.1-.1v.1c-.3.6-.6 1.2-.7 1.8v.5c.1.1.2.3.5.4.2.1.4.2.5.2.1 0 .1 0 .2-.1 0 0 .1-.1.2-.3.3-.5.5-.9.7-1.1.2-.2.4-.4.7-.6.4-.3.9-.5 1.5-.6-.2.5-.3 1.1-.1 1.4.1.3.3.7.9 1 .4.2 1.2.2 1.8 0 .9-.2 1.5-.7 1.9-1 .4-.3 1.3-1.1 1.6-1.4.3-.2.7-.6 1-.9-.5.8-.9 1.6-1.2 2.4-.1.2-.1.4 0 .5.1.1.2.3.4.4.2.2.4.2.5.2.1 0 .3-.1.4-.4.5-1 1-1.7 1.7-2.3.4-.4 1-.8 1.6-1-.2.3-.2.5-.2.6.1.2.2.3.5.4.3.1.5.2.9.3-.1-.1-.1-.2-.1-.2-.1-.2-.1-.3 0-.5s.2-.5.5-.8l.4-.5c-.2.2-.1 0-.2-.1zm-9.4.8c.5-.3.9-.4 1.2-.4.1 0 .2 0 .2.1s0 .3-.2.6-.4.8-1.1 1.1c-.6.2-1.4.1-1.7-.1.3-.3 1.1-1 1.6-1.3zm-32.6 3.6c-.9.3-2 .6-3.1.9-1.1.2-2 .4-2.7.4-1 0-1.5-.2-1.7-.6-.1-.2 0-.4.2-.7.2-.3.5-.5.9-.6v.1c-.1.4-.1.7.1 1 .1.2.2.4.5.6l.1-.2.9-1.8v-.2c.7-.3 1.5-.5 2.4-.7.9-.2 1.8-.3 2.8-.4 1-.1 2-.2 3-.2h.5c-.7.9-2 1.7-3.9 2.4zm4.3-2.9c-.7 0-1.3-.1-2-.1-.8 0-1.5 0-2.2.1-.7 0-1.4.1-2.1.2-.7.1-1.3.2-1.9.3h-.2v-.1l.2-.4c.1-.1.2-.3.3-.5l.3-.5h.1l.2-.1c.3-.1.8-.2 1.4-.3.6-.1 1.2-.2 1.7-.3.6-.1 1.1-.1 1.5-.1.7 0 1.3.1 1.7.2.5.2.7.4.9.6.2.5.2.8.1 1zm21.7-.7c-.1.2-.3.5-.7.9-.6.6-1.4 1.1-2.2 1.5-.4.2-.7.3-.9.3-.1 0-.2 0-.2-.1v-.2c.2-.4.5-.8.9-1.1.4-.4.9-.7 1.5-1 .2-.1.4-.2.7-.3.3-.1.5-.2.6-.1.1 0 .1 0 .2.1.1-.1.1-.1.1 0zM56.6 34.2c-.1 0-.4 0-.7.1-.8.1-1.4.3-1.9.6.1-.4.3-.6.3-.7l.4-.6c.1-.1.1-.2.1-.3 0-.1-.1-.2-.3-.2.2-.2.2-.4.1-.6-.1-.2-.2-.4-.4-.5-.2-.1-.4-.2-.7-.2-.4 0-.9.1-1.6.4-.7.3-1.3.6-1.8 1s-.9.7-1.3 1.1c-.7.7-1.4 1.2-2.3 1.5-.4.1-1.5.5-1.8-.1-.1-.2 0-.5.2-.9.7-1.5 2.3-2 2.5-2h.2c.1.1-.4.6-.3.8.3-.4.6-.6.9-.8.2-.1.3-.3.2-.4l-.3-.3c-.2-.1-.4-.1-.5-.1-.1 0-.3 0-.6.1s-.6.2-.9.4c-.3.1-.6.3-.8.5-.2.1-.3.2-.5.4-.4.2-1.2.7-2 1.3-.9.7-1.2.8-1.7 1.1.2-.6.6-1.5.9-1.9l.1-.1c.3-.4.4-.6.4-.6.1-.1.2-.2.2-.3v-.3c-.1-.2-.2-.3-.3-.4-.1-.1-.3-.2-.4-.2-.1 0-.2.1-.3.2l-.9 1.4c-.4.7-.7 1.2-.8 1.6-.2.3-.3.7-.4 1.2v.5c.1.1.2.3.5.4.2.1.4.2.5.2.1 0 .1 0 .2-.1 0 0 .2-.1.3-.3.3-.4.6-.8.7-.9.3-.3.4-.5.6-.7.6-.7 1.1-1 1.6-1.4-.1.2-.3.4-.3.6-.2.4-.2.8-.1 1.2.1.3.4.9.9 1.1.8.4 1.5.2 1.6.2.6-.1 1.3-.4 2-1.2 0 .1 0 .2.1.2.1.3.3.5.6.8.3.2.6.4.8.4.2 0 .4-.1.8-.4.7-.6 1.5-1.3 2.4-2.3l.2-.2-.1.2c-.3.6-.4 1-.5 1.3-.1.3-.1.5-.1.7.1.2.3.3.6.5.2.1.3.2.5.2.1 0 .2 0 .2-.1 0 0 .1-.1.1-.2.1-.4.3-.8.5-1 .2-.3.4-.5.6-.7.2-.2.5-.4.9-.5.3-.1.7-.2 1.2-.3.2 0 .3-.1.3-.2-.3-.1-.4-.2-.6-.2zm-3.3-1c-.1.2-.3.5-.7.9-.6.6-1.4 1.1-2.2 1.5-.4.2-.7.3-.9.3-.1 0-.2 0-.2-.1s.1-.3.3-.6c.1-.2.3-.4.6-.7.2-.2.5-.4.8-.6.3-.2.5-.3.8-.5.2-.1.5-.2.8-.3.3-.1.5-.1.6-.1.1 0 .1 0 .2.1-.1 0-.1 0-.1.1zM59.1 30.6c.1-.2.2-.3.2-.5 0-.1 0-.3-.1-.3-.1-.1-.2-.2-.4-.2s-.5.1-.8.3c-.4.3-.6.9-1.1 1.5-.4.5-.9.7-.9.9 0 .1.1.2.2.2.2 0 .5-.1 1.1-.4.5-.3 1-.6 1.4-.9 0-.3.2-.5.4-.6zM62.2 32.4c-.1-.1-.2-.1-.3-.1-.3 0-.8.1-1.4.3-.5.1-.9.3-1.4.5-.4.2-.8.4-1 .6-.2.2-.2.3-.2.5.1.2.3.3.5.4.2.1.6.1 1.3.1.5 0 .8 0 1.1.1-.4.2-.8.3-1 .4-.7.3-1.3.6-1.9.9-.3.2-.6.3-.7.4-.1.1-.1.2-.1.3 0 .1.2.2.3.3.1.1.3.1.4.1.1 0 .1 0 .2-.1.3-.2.9-.6 1.8-1 .7-.4 1.1-.6 1.8-.8 0 0 .5-.2.2-.5-.1-.1-.2-.2-.4-.2s-.5-.1-.9-.1c-.2 0-.4 0-.6-.1-.2 0-.4-.1-.5-.1-.1 0-.1-.1-.2-.1 0-.1 0-.1.1-.2.4-.3.9-.5 1.5-.6l1-.2c.4-.1.5-.2.5-.2 0-.1.1-.1 0-.2.1-.2 0-.3-.1-.4z"/><path class="st0" d="M91.7 30.8c.1.1.2.1.4.1.1 0 .2 0 .3-.1.1-.1.2-.2.4-.3.2-.1.3-.2.4-.3.2-.1.2-.3.2-.4-.1-.1-.2-.3-.3-.4-.2-.1-.3-.2-.5-.2s-.4.2-.7.5c-.3.3-.4.6-.3.8-.2.1-.1.2.1.3zM43.2 30.9c.1.1.2.1.4.1.1 0 .2 0 .3-.1.1-.1.2-.2.4-.3.2-.1.3-.2.4-.3.2-.1.2-.3.2-.4-.1-.1-.2-.3-.3-.4-.2-.1-.3-.2-.5-.2s-.4.2-.7.5c-.3.3-.4.6-.3.8-.1.2 0 .2.1.3z"/></g></g></svg>