<?xml version="1.0" encoding="UTF-8"?>
<svg id="Layer_1" data-name="Layer 1" xmlns="http://www.w3.org/2000/svg" version="1.1" viewBox="0 0 563.8 336.6">
  <g>
    <path d="M521.4,101c24.6-9.2,36.1-24,36.1-48.1S535.4,0,497.1,0h-108.9c6,5.1,11.1,11.1,15.2,18h96.8c22.9,0,37.2,14.6,37.2,35.5s-17.5,39.5-41.5,39.5h-86.7c-2.6,6.6-6,12.7-10.3,18h99.9c28,0,45.5,15.7,45.5,40.3s-16,37.8-46.1,37.8h-91.8l13.4,18h78.8c40.6,0,65.2-21.5,65.2-54.7s-13.7-42.4-42.4-51.5" style="fill: #231f20; stroke-width: 0px;"/>
    <path d="M361.6,159.3l-7-9.5-18.6-25.1-1.8-2.5c.6,0,1.2-.1,1.8-.2,6.7-.6,12.9-1.7,18.6-3.4,2.5-.7,4.8-1.6,7-2.5,3.6-1.5,7-3.2,10.1-5.1,7.4-4.7,13.1-10.8,17.2-18,5-8.7,7.6-19.2,7.6-31.2,0-18.2-5.6-33.1-15.7-43.8C370.4,6.9,355,.5,336,0c-.6,0-1.2,0-1.8,0h-137.5c8.5,5.1,16.2,11.1,22.9,18h106.3c3.6,0,6.9.2,10.1.5,7.2.7,13.4,2.3,18.6,4.6,2.6,1.2,4.9,2.5,7,4.1,9.5,7.1,14.3,18.2,14.3,33.7s-4,24.7-11.5,32.1c-.9.9-1.8,1.7-2.8,2.5-6.5,5.1-15.2,8-25.6,8.5-1.1,0-2.2.1-3.3.1h-80.8c0,.6,0,1.1,0,1.7,0,5.6-.4,11-1,16.3h58.6l3.6,4.7,22.8,29.9,18.6,24.3,6.1,8,.9,1.2,12.9,16.8h22.6l-13.4-18-22.1-29.9Z" style="fill: #231f20; stroke-width: 0px;"/>
    <path d="M196.5,156.3c-1.9,2.8-4,5.5-6.3,8-3.8,4.1-8,7.7-12.3,10.9-2,1.4-4.1,2.7-6.2,4-3.8,2.2-7.9,4-12,5.4-8.5,3-17.5,4.6-27.2,4.6H19.4V18h107.6c11.9,0,22.8,1.9,32.7,5.5,6.6,2.4,12.7,5.6,18.2,9.4.8.6,1.6,1.1,2.4,1.7,6.2,4.7,11.6,10.3,16.2,16.7,10,14.1,15.6,32.1,15.8,52.7,0,.3,0,.6,0,.9,0,5.9-.5,11.6-1.6,17.2-2.3,12.6-7.2,24.2-14.2,34.1M232.3,86c-1-7.1-2.6-13.9-4.8-20.3-3.1-9.3-7.4-17.7-12.8-25.2-1.4-2-2.9-3.9-4.5-5.8-4.1-4.8-8.6-9.1-13.7-13-5.6-4.3-11.8-8-18.6-11.1-5.7-2.6-11.8-4.7-18.2-6.4C148.8,1.5,136.9,0,124.1,0H.8v207.2h130.2c10,0,19.6-1.2,28.7-3.6,6.3-1.7,12.4-3.9,18.2-6.6,6.6-3.2,12.9-7,18.6-11.5,2.5-2,4.9-4.1,7.2-6.3.2-.2.4-.3.5-.5,3.9-3.8,7.3-7.9,10.5-12.1,5.4-7.4,9.7-15.4,12.8-24.1.2-.6.5-1.3.7-1.9,2-5.8,3.4-11.9,4.4-18.2.8-5.3,1.2-10.7,1.2-16.3s0-1.1,0-1.7c0-6.3-.5-12.4-1.4-18.2" style="fill: #231f20; stroke-width: 0px;"/>
    <polygon points="66.5 256.3 66.5 284.3 11.4 284.3 11.4 256.3 0 256.3 0 325.2 11.4 325.2 11.4 294.6 66.5 294.6 66.5 325.2 78 325.2 78 256.3 66.5 256.3" style="fill: #0090b9; stroke-width: 0px;"/>
    <path d="M182.7,271.1c-5.5-4-13.3-6.5-22-6.5-19.2,0-32.4,11-32.4,26s12.6,26.1,32.4,26.1,32.2-10.6,32.2-26.1-3.4-14.5-10.3-19.6M190.9,318c-7.6,5.7-18.3,9.1-30.2,9.1s-22.9-3.5-30.4-9.2c-9.2-6.9-13.9-16.1-13.9-27.3s4.8-20.1,14.1-27.2c7.7-5.8,18.4-9.3,30.2-9.3s22.5,3.5,30.1,9.3c9.2,7,14,16.3,14,27.2s-4.7,20.4-13.9,27.4" style="fill: #0090b9; stroke-width: 0px;"/>
    <polygon points="323.7 256.3 290.5 298 257.4 256.3 243.2 256.3 243.2 325.2 254.6 325.2 254.6 268.9 254.9 268.9 290.4 313.8 326.1 268.9 326.4 268.9 326.4 325.2 337.8 325.2 337.8 256.3 323.7 256.3" style="fill: #0090b9; stroke-width: 0px;"/>
    <polygon points="379.9 256.3 379.9 325.2 451.9 325.2 451.9 314.8 391.3 314.8 391.3 294.6 431.6 294.6 431.6 284.3 391.3 284.3 391.3 266.7 449.3 266.7 449.3 256.3 379.9 256.3" style="fill: #0090b9; stroke-width: 0px;"/>
    <path d="M514.1,264.7c-14.3,0-21.8,3.6-21.8,9.3s2,5.2,6,6.7c7.5,2.7,18.8,1.8,32.8,3.6,17.1,2.2,25.3,8.1,25.3,19.6s-13.1,22.9-37.6,22.9-31-3.7-41-11.6l6.3-8.3c11,6.8,22.2,9.9,34.8,9.9s25.1-4.8,25.1-12.2-11.7-9.8-31.9-11.1c-21.2-1.4-31.8-4.8-31.8-18s12.4-20.9,34.7-20.9,27.3,3.4,37.3,10.2l-6.9,7.7c-10.3-5.2-20.3-7.8-31.2-7.8" style="fill: #0090b9; stroke-width: 0px;"/>
  </g>
  <path d="M555.8,333.3c0,1.9-1.5,3.3-3.4,3.3s-3.4-1.5-3.4-3.3,1.5-3.3,3.4-3.3,3.4,1.5,3.4,3.3ZM549.9,333.3c0,1.5,1.1,2.6,2.6,2.6s2.5-1.2,2.5-2.6-1.1-2.6-2.5-2.6-2.5,1.2-2.5,2.6ZM551.9,335h-.8v-3.3c.3,0,.7-.1,1.3-.1s.9.1,1.1.2c.2.1.3.4.3.7s-.3.6-.7.8h0c.3.2.5.4.6.8,0,.5.2.7.2.8h-.8c-.1-.1-.2-.4-.3-.8,0-.4-.3-.5-.7-.5h-.4v1.3ZM551.9,333.2h.4c.4,0,.8-.1.8-.5s-.2-.5-.7-.5-.3,0-.4,0v.9Z" style="fill: #008eb7; stroke-width: 0px;"/>
</svg>